<mxfile host="app.diagrams.net" modified="2021-10-07T10:31:48.477Z" agent="5.0 (Windows NT 10.0; Win64; x64) AppleWebKit/537.36 (KHTML, like Gecko) Chrome/93.0.4577.82 Safari/537.36 OPR/79.0.4143.72" etag="-I-i4BMgLYABnPdqHRH6" version="15.4.3" type="github">
  <diagram id="3hRcNl2i0EjQMOGxMyCn" name="Page-1">
    <mxGraphModel dx="1237" dy="1899" grid="1" gridSize="10" guides="1" tooltips="1" connect="1" arrows="1" fold="1" page="1" pageScale="1" pageWidth="827" pageHeight="1169" math="0" shadow="0">
      <root>
        <mxCell id="0" />
        <mxCell id="1" parent="0" />
        <mxCell id="O_F5pFgkzcXUlUcAhXim-4" value="" style="edgeStyle=orthogonalEdgeStyle;rounded=0;orthogonalLoop=1;jettySize=auto;html=1;" parent="1" source="O_F5pFgkzcXUlUcAhXim-1" target="O_F5pFgkzcXUlUcAhXim-3" edge="1">
          <mxGeometry relative="1" as="geometry" />
        </mxCell>
        <mxCell id="O_F5pFgkzcXUlUcAhXim-1" value="" style="ellipse;whiteSpace=wrap;html=1;fillColor=#0F0F0F;" parent="1" vertex="1">
          <mxGeometry x="364" y="-400" width="50" height="50" as="geometry" />
        </mxCell>
        <mxCell id="O_F5pFgkzcXUlUcAhXim-6" value="" style="edgeStyle=orthogonalEdgeStyle;rounded=0;orthogonalLoop=1;jettySize=auto;html=1;" parent="1" source="O_F5pFgkzcXUlUcAhXim-3" target="O_F5pFgkzcXUlUcAhXim-5" edge="1">
          <mxGeometry relative="1" as="geometry" />
        </mxCell>
        <mxCell id="O_F5pFgkzcXUlUcAhXim-3" value="ввід x" style="whiteSpace=wrap;html=1;fillColor=#FFFFFF;rounded=1;arcSize=50;" parent="1" vertex="1">
          <mxGeometry x="329" y="-320" width="120" height="40" as="geometry" />
        </mxCell>
        <mxCell id="O_F5pFgkzcXUlUcAhXim-8" value="" style="edgeStyle=orthogonalEdgeStyle;rounded=0;orthogonalLoop=1;jettySize=auto;html=1;" parent="1" source="O_F5pFgkzcXUlUcAhXim-5" target="O_F5pFgkzcXUlUcAhXim-7" edge="1">
          <mxGeometry relative="1" as="geometry" />
        </mxCell>
        <mxCell id="O_F5pFgkzcXUlUcAhXim-5" value="A = (1. / abs(x + 2)) + 1" style="whiteSpace=wrap;html=1;fillColor=#FFFFFF;rounded=1;arcSize=50;" parent="1" vertex="1">
          <mxGeometry x="304" y="-250" width="170" height="60" as="geometry" />
        </mxCell>
        <mxCell id="O_F5pFgkzcXUlUcAhXim-10" value="" style="edgeStyle=orthogonalEdgeStyle;rounded=0;orthogonalLoop=1;jettySize=auto;html=1;" parent="1" source="O_F5pFgkzcXUlUcAhXim-7" target="O_F5pFgkzcXUlUcAhXim-9" edge="1">
          <mxGeometry relative="1" as="geometry" />
        </mxCell>
        <mxCell id="O_F5pFgkzcXUlUcAhXim-15" style="edgeStyle=orthogonalEdgeStyle;rounded=0;orthogonalLoop=1;jettySize=auto;html=1;exitX=0.5;exitY=1;exitDx=0;exitDy=0;entryX=0.5;entryY=0;entryDx=0;entryDy=0;" parent="1" source="O_F5pFgkzcXUlUcAhXim-7" target="O_F5pFgkzcXUlUcAhXim-14" edge="1">
          <mxGeometry relative="1" as="geometry" />
        </mxCell>
        <mxCell id="O_F5pFgkzcXUlUcAhXim-7" value="" style="rhombus;whiteSpace=wrap;html=1;fillColor=#FFFFFF;" parent="1" vertex="1">
          <mxGeometry x="364" y="-120" width="50" height="50" as="geometry" />
        </mxCell>
        <mxCell id="O_F5pFgkzcXUlUcAhXim-9" value="B = 7 * x * x + x - 8;" style="whiteSpace=wrap;html=1;fillColor=#FFFFFF;rounded=1;arcSize=13;" parent="1" vertex="1">
          <mxGeometry x="500" y="-125" width="120" height="60" as="geometry" />
        </mxCell>
        <mxCell id="O_F5pFgkzcXUlUcAhXim-11" value="[x&amp;lt;1]" style="text;html=1;strokeColor=none;fillColor=none;align=center;verticalAlign=middle;whiteSpace=wrap;rounded=0;" parent="1" vertex="1">
          <mxGeometry x="414" y="-120" width="40" height="20" as="geometry" />
        </mxCell>
        <mxCell id="O_F5pFgkzcXUlUcAhXim-13" value="" style="endArrow=classic;html=1;entryX=1;entryY=0.5;entryDx=0;entryDy=0;exitX=0.5;exitY=1;exitDx=0;exitDy=0;" parent="1" source="O_F5pFgkzcXUlUcAhXim-9" target="O_F5pFgkzcXUlUcAhXim-14" edge="1">
          <mxGeometry width="50" height="50" relative="1" as="geometry">
            <mxPoint x="560" y="-25" as="sourcePoint" />
            <mxPoint x="420" y="-20" as="targetPoint" />
            <Array as="points">
              <mxPoint x="560" y="-25" />
            </Array>
          </mxGeometry>
        </mxCell>
        <mxCell id="O_F5pFgkzcXUlUcAhXim-17" style="edgeStyle=orthogonalEdgeStyle;rounded=0;orthogonalLoop=1;jettySize=auto;html=1;exitX=0.5;exitY=1;exitDx=0;exitDy=0;entryX=0.5;entryY=0;entryDx=0;entryDy=0;" parent="1" source="O_F5pFgkzcXUlUcAhXim-14" target="O_F5pFgkzcXUlUcAhXim-16" edge="1">
          <mxGeometry relative="1" as="geometry" />
        </mxCell>
        <mxCell id="O_F5pFgkzcXUlUcAhXim-14" value="" style="rhombus;whiteSpace=wrap;html=1;fillColor=#FFFFFF;" parent="1" vertex="1">
          <mxGeometry x="364" y="-50" width="50" height="50" as="geometry" />
        </mxCell>
        <mxCell id="O_F5pFgkzcXUlUcAhXim-18" style="edgeStyle=orthogonalEdgeStyle;rounded=0;orthogonalLoop=1;jettySize=auto;html=1;exitX=1;exitY=0.5;exitDx=0;exitDy=0;" parent="1" source="O_F5pFgkzcXUlUcAhXim-16" target="O_F5pFgkzcXUlUcAhXim-19" edge="1">
          <mxGeometry relative="1" as="geometry">
            <mxPoint x="500" y="55" as="targetPoint" />
          </mxGeometry>
        </mxCell>
        <mxCell id="O_F5pFgkzcXUlUcAhXim-21" style="edgeStyle=orthogonalEdgeStyle;rounded=0;orthogonalLoop=1;jettySize=auto;html=1;exitX=0.5;exitY=1;exitDx=0;exitDy=0;entryX=0.5;entryY=0;entryDx=0;entryDy=0;" parent="1" source="O_F5pFgkzcXUlUcAhXim-16" target="O_F5pFgkzcXUlUcAhXim-29" edge="1">
          <mxGeometry relative="1" as="geometry">
            <mxPoint x="390" y="110" as="targetPoint" />
          </mxGeometry>
        </mxCell>
        <mxCell id="O_F5pFgkzcXUlUcAhXim-16" value="" style="rhombus;whiteSpace=wrap;html=1;fillColor=#FFFFFF;" parent="1" vertex="1">
          <mxGeometry x="364" y="30" width="50" height="50" as="geometry" />
        </mxCell>
        <mxCell id="MqCJgIouwJsGUczSuPMV-1" style="edgeStyle=orthogonalEdgeStyle;rounded=0;orthogonalLoop=1;jettySize=auto;html=1;exitX=0.5;exitY=1;exitDx=0;exitDy=0;entryX=1;entryY=0.5;entryDx=0;entryDy=0;" edge="1" parent="1" source="O_F5pFgkzcXUlUcAhXim-19" target="O_F5pFgkzcXUlUcAhXim-29">
          <mxGeometry relative="1" as="geometry" />
        </mxCell>
        <mxCell id="O_F5pFgkzcXUlUcAhXim-19" value="B = 1/tan ((x + 4) / (11))" style="rounded=1;whiteSpace=wrap;html=1;fillColor=#FFFFFF;arcSize=15;" parent="1" vertex="1">
          <mxGeometry x="530" y="25" width="130" height="60" as="geometry" />
        </mxCell>
        <mxCell id="O_F5pFgkzcXUlUcAhXim-23" value="[1 &amp;gt;= x &amp;amp;&amp;amp; x &amp;gt;= 4]" style="text;html=1;strokeColor=none;fillColor=none;align=center;verticalAlign=middle;whiteSpace=wrap;rounded=0;" parent="1" vertex="1">
          <mxGeometry x="414" y="30" width="100" height="20" as="geometry" />
        </mxCell>
        <mxCell id="MqCJgIouwJsGUczSuPMV-6" style="edgeStyle=orthogonalEdgeStyle;rounded=0;orthogonalLoop=1;jettySize=auto;html=1;exitX=0.5;exitY=1;exitDx=0;exitDy=0;entryX=1;entryY=0.5;entryDx=0;entryDy=0;" edge="1" parent="1" source="O_F5pFgkzcXUlUcAhXim-26" target="MqCJgIouwJsGUczSuPMV-4">
          <mxGeometry relative="1" as="geometry" />
        </mxCell>
        <mxCell id="O_F5pFgkzcXUlUcAhXim-26" value="B = sqrt(1 + abs(cos(x) * cos(x) * cos(x)))" style="whiteSpace=wrap;html=1;fillColor=#FFFFFF;rounded=1;arcSize=13;" parent="1" vertex="1">
          <mxGeometry x="520" y="280" width="160" height="60" as="geometry" />
        </mxCell>
        <mxCell id="O_F5pFgkzcXUlUcAhXim-33" value="" style="edgeStyle=orthogonalEdgeStyle;rounded=0;orthogonalLoop=1;jettySize=auto;html=1;" parent="1" source="O_F5pFgkzcXUlUcAhXim-29" edge="1">
          <mxGeometry relative="1" as="geometry">
            <mxPoint x="390" y="230" as="targetPoint" />
          </mxGeometry>
        </mxCell>
        <mxCell id="O_F5pFgkzcXUlUcAhXim-29" value="" style="rhombus;whiteSpace=wrap;html=1;fillColor=#FFFFFF;" parent="1" vertex="1">
          <mxGeometry x="366" y="160" width="49" height="50" as="geometry" />
        </mxCell>
        <mxCell id="O_F5pFgkzcXUlUcAhXim-35" value="" style="edgeStyle=orthogonalEdgeStyle;rounded=0;orthogonalLoop=1;jettySize=auto;html=1;" parent="1" source="O_F5pFgkzcXUlUcAhXim-32" target="O_F5pFgkzcXUlUcAhXim-34" edge="1">
          <mxGeometry relative="1" as="geometry" />
        </mxCell>
        <mxCell id="O_F5pFgkzcXUlUcAhXim-32" value="y = A + B" style="whiteSpace=wrap;html=1;fillColor=#FFFFFF;rounded=1;arcSize=50;" parent="1" vertex="1">
          <mxGeometry x="330" y="430" width="120" height="60" as="geometry" />
        </mxCell>
        <mxCell id="O_F5pFgkzcXUlUcAhXim-39" value="" style="edgeStyle=orthogonalEdgeStyle;rounded=0;orthogonalLoop=1;jettySize=auto;html=1;" parent="1" source="O_F5pFgkzcXUlUcAhXim-34" target="O_F5pFgkzcXUlUcAhXim-38" edge="1">
          <mxGeometry relative="1" as="geometry" />
        </mxCell>
        <mxCell id="O_F5pFgkzcXUlUcAhXim-34" value="вивід y" style="whiteSpace=wrap;html=1;fillColor=#FFFFFF;rounded=1;arcSize=50;" parent="1" vertex="1">
          <mxGeometry x="330" y="540" width="120" height="60" as="geometry" />
        </mxCell>
        <mxCell id="O_F5pFgkzcXUlUcAhXim-41" value="" style="edgeStyle=orthogonalEdgeStyle;rounded=0;orthogonalLoop=1;jettySize=auto;html=1;" parent="1" source="O_F5pFgkzcXUlUcAhXim-38" edge="1">
          <mxGeometry relative="1" as="geometry">
            <mxPoint x="501" y="665" as="targetPoint" />
          </mxGeometry>
        </mxCell>
        <mxCell id="O_F5pFgkzcXUlUcAhXim-44" value="" style="edgeStyle=orthogonalEdgeStyle;rounded=0;orthogonalLoop=1;jettySize=auto;html=1;" parent="1" source="O_F5pFgkzcXUlUcAhXim-38" target="O_F5pFgkzcXUlUcAhXim-43" edge="1">
          <mxGeometry relative="1" as="geometry" />
        </mxCell>
        <mxCell id="O_F5pFgkzcXUlUcAhXim-38" value="" style="rhombus;whiteSpace=wrap;html=1;fillColor=#FFFFFF;" parent="1" vertex="1">
          <mxGeometry x="366" y="640" width="49" height="50" as="geometry" />
        </mxCell>
        <mxCell id="O_F5pFgkzcXUlUcAhXim-57" value="" style="edgeStyle=orthogonalEdgeStyle;rounded=0;orthogonalLoop=1;jettySize=auto;html=1;" parent="1" source="O_F5pFgkzcXUlUcAhXim-42" target="O_F5pFgkzcXUlUcAhXim-56" edge="1">
          <mxGeometry relative="1" as="geometry" />
        </mxCell>
        <mxCell id="O_F5pFgkzcXUlUcAhXim-42" value="B = 7 * x * x + x - 8;" style="whiteSpace=wrap;html=1;fillColor=#FFFFFF;rounded=1;arcSize=16;" parent="1" vertex="1">
          <mxGeometry x="501" y="635" width="120" height="60" as="geometry" />
        </mxCell>
        <mxCell id="O_F5pFgkzcXUlUcAhXim-47" style="edgeStyle=orthogonalEdgeStyle;rounded=0;orthogonalLoop=1;jettySize=auto;html=1;exitX=1;exitY=0.5;exitDx=0;exitDy=0;entryX=0;entryY=0.5;entryDx=0;entryDy=0;" parent="1" source="O_F5pFgkzcXUlUcAhXim-43" target="O_F5pFgkzcXUlUcAhXim-48" edge="1">
          <mxGeometry relative="1" as="geometry">
            <mxPoint x="501" y="755" as="targetPoint" />
          </mxGeometry>
        </mxCell>
        <mxCell id="O_F5pFgkzcXUlUcAhXim-52" value="" style="edgeStyle=orthogonalEdgeStyle;rounded=0;orthogonalLoop=1;jettySize=auto;html=1;entryX=0.5;entryY=0;entryDx=0;entryDy=0;" parent="1" source="O_F5pFgkzcXUlUcAhXim-43" target="O_F5pFgkzcXUlUcAhXim-55" edge="1">
          <mxGeometry relative="1" as="geometry">
            <mxPoint x="390.57142857142867" y="810.0728862973765" as="targetPoint" />
          </mxGeometry>
        </mxCell>
        <mxCell id="O_F5pFgkzcXUlUcAhXim-43" value="" style="rhombus;whiteSpace=wrap;html=1;fillColor=#FFFFFF;" parent="1" vertex="1">
          <mxGeometry x="366" y="730" width="49" height="50" as="geometry" />
        </mxCell>
        <mxCell id="O_F5pFgkzcXUlUcAhXim-58" style="edgeStyle=orthogonalEdgeStyle;rounded=0;orthogonalLoop=1;jettySize=auto;html=1;exitX=1;exitY=0.5;exitDx=0;exitDy=0;entryX=0;entryY=0.5;entryDx=0;entryDy=0;" parent="1" source="O_F5pFgkzcXUlUcAhXim-48" target="O_F5pFgkzcXUlUcAhXim-56" edge="1">
          <mxGeometry relative="1" as="geometry" />
        </mxCell>
        <mxCell id="O_F5pFgkzcXUlUcAhXim-48" value="B = 1/tan ((x + 4) / (11))" style="rounded=1;whiteSpace=wrap;html=1;fillColor=#FFFFFF;arcSize=18;" parent="1" vertex="1">
          <mxGeometry x="515" y="725" width="130" height="60" as="geometry" />
        </mxCell>
        <mxCell id="O_F5pFgkzcXUlUcAhXim-49" value="[x&amp;lt;4]" style="text;html=1;strokeColor=none;fillColor=none;align=center;verticalAlign=middle;whiteSpace=wrap;rounded=0;" parent="1" vertex="1">
          <mxGeometry x="415" y="640" width="40" height="20" as="geometry" />
        </mxCell>
        <mxCell id="O_F5pFgkzcXUlUcAhXim-63" value="" style="edgeStyle=orthogonalEdgeStyle;rounded=0;orthogonalLoop=1;jettySize=auto;html=1;" parent="1" target="O_F5pFgkzcXUlUcAhXim-62" edge="1">
          <mxGeometry relative="1" as="geometry">
            <mxPoint x="390.5" y="860" as="sourcePoint" />
          </mxGeometry>
        </mxCell>
        <mxCell id="O_F5pFgkzcXUlUcAhXim-55" value="B = sqrt(1 + abs(cos(x) * cos(x) * cos(x)))" style="whiteSpace=wrap;html=1;fillColor=#FFFFFF;rounded=1;arcSize=17;" parent="1" vertex="1">
          <mxGeometry x="310" y="805" width="160" height="60" as="geometry" />
        </mxCell>
        <mxCell id="O_F5pFgkzcXUlUcAhXim-60" value="" style="edgeStyle=orthogonalEdgeStyle;rounded=0;orthogonalLoop=1;jettySize=auto;html=1;entryX=1;entryY=0.5;entryDx=0;entryDy=0;" parent="1" source="O_F5pFgkzcXUlUcAhXim-56" target="O_F5pFgkzcXUlUcAhXim-62" edge="1">
          <mxGeometry relative="1" as="geometry">
            <mxPoint x="746.0000000000002" y="812.5" as="targetPoint" />
            <Array as="points">
              <mxPoint x="746" y="925" />
            </Array>
          </mxGeometry>
        </mxCell>
        <mxCell id="O_F5pFgkzcXUlUcAhXim-56" value="" style="rhombus;whiteSpace=wrap;html=1;fillColor=#FFFFFF;" parent="1" vertex="1">
          <mxGeometry x="721" y="732.5" width="50" height="45" as="geometry" />
        </mxCell>
        <mxCell id="O_F5pFgkzcXUlUcAhXim-66" value="" style="edgeStyle=orthogonalEdgeStyle;rounded=0;orthogonalLoop=1;jettySize=auto;html=1;" parent="1" source="O_F5pFgkzcXUlUcAhXim-62" target="O_F5pFgkzcXUlUcAhXim-65" edge="1">
          <mxGeometry relative="1" as="geometry" />
        </mxCell>
        <mxCell id="O_F5pFgkzcXUlUcAhXim-62" value="" style="rhombus;whiteSpace=wrap;html=1;fillColor=#FFFFFF;" parent="1" vertex="1">
          <mxGeometry x="366" y="900" width="49" height="50" as="geometry" />
        </mxCell>
        <mxCell id="O_F5pFgkzcXUlUcAhXim-68" value="" style="edgeStyle=orthogonalEdgeStyle;rounded=0;orthogonalLoop=1;jettySize=auto;html=1;" parent="1" source="O_F5pFgkzcXUlUcAhXim-65" target="O_F5pFgkzcXUlUcAhXim-67" edge="1">
          <mxGeometry relative="1" as="geometry" />
        </mxCell>
        <mxCell id="O_F5pFgkzcXUlUcAhXim-65" value="y = A + B" style="whiteSpace=wrap;html=1;fillColor=#FFFFFF;rounded=1;arcSize=50;" parent="1" vertex="1">
          <mxGeometry x="330" y="990" width="120" height="60" as="geometry" />
        </mxCell>
        <mxCell id="O_F5pFgkzcXUlUcAhXim-70" value="" style="edgeStyle=orthogonalEdgeStyle;rounded=0;orthogonalLoop=1;jettySize=auto;html=1;" parent="1" source="O_F5pFgkzcXUlUcAhXim-67" target="O_F5pFgkzcXUlUcAhXim-69" edge="1">
          <mxGeometry relative="1" as="geometry" />
        </mxCell>
        <mxCell id="O_F5pFgkzcXUlUcAhXim-67" value="вивід y" style="whiteSpace=wrap;html=1;fillColor=#FFFFFF;rounded=1;arcSize=50;" parent="1" vertex="1">
          <mxGeometry x="330" y="1090" width="120" height="60" as="geometry" />
        </mxCell>
        <mxCell id="O_F5pFgkzcXUlUcAhXim-69" value="" style="ellipse;whiteSpace=wrap;html=1;fillColor=#080808;" parent="1" vertex="1">
          <mxGeometry x="370" y="1199" width="40" height="40" as="geometry" />
        </mxCell>
        <mxCell id="O_F5pFgkzcXUlUcAhXim-71" value="[1 &amp;gt;= x &amp;amp;&amp;amp; x &amp;gt;= 4]" style="text;html=1;strokeColor=none;fillColor=none;align=center;verticalAlign=middle;whiteSpace=wrap;rounded=0;" parent="1" vertex="1">
          <mxGeometry x="410" y="730" width="100" height="20" as="geometry" />
        </mxCell>
        <mxCell id="MqCJgIouwJsGUczSuPMV-3" value="[x &amp;gt; 4]" style="edgeStyle=orthogonalEdgeStyle;rounded=0;orthogonalLoop=1;jettySize=auto;html=1;exitX=1;exitY=0.5;exitDx=0;exitDy=0;entryX=0.5;entryY=0;entryDx=0;entryDy=0;fontSize=15;" edge="1" parent="1" source="MqCJgIouwJsGUczSuPMV-2" target="O_F5pFgkzcXUlUcAhXim-26">
          <mxGeometry x="-0.8093" y="15" relative="1" as="geometry">
            <mxPoint x="-1" as="offset" />
          </mxGeometry>
        </mxCell>
        <mxCell id="MqCJgIouwJsGUczSuPMV-5" style="edgeStyle=orthogonalEdgeStyle;rounded=0;orthogonalLoop=1;jettySize=auto;html=1;exitX=0.5;exitY=1;exitDx=0;exitDy=0;entryX=0.5;entryY=0;entryDx=0;entryDy=0;" edge="1" parent="1" source="MqCJgIouwJsGUczSuPMV-2" target="MqCJgIouwJsGUczSuPMV-4">
          <mxGeometry relative="1" as="geometry" />
        </mxCell>
        <mxCell id="MqCJgIouwJsGUczSuPMV-2" value="" style="rhombus;whiteSpace=wrap;html=1;" vertex="1" parent="1">
          <mxGeometry x="360.5" y="230" width="60" height="50" as="geometry" />
        </mxCell>
        <mxCell id="MqCJgIouwJsGUczSuPMV-7" style="edgeStyle=orthogonalEdgeStyle;rounded=0;orthogonalLoop=1;jettySize=auto;html=1;exitX=0.5;exitY=1;exitDx=0;exitDy=0;entryX=0.5;entryY=0;entryDx=0;entryDy=0;" edge="1" parent="1" source="MqCJgIouwJsGUczSuPMV-4" target="O_F5pFgkzcXUlUcAhXim-32">
          <mxGeometry relative="1" as="geometry" />
        </mxCell>
        <mxCell id="MqCJgIouwJsGUczSuPMV-4" value="" style="rhombus;whiteSpace=wrap;html=1;" vertex="1" parent="1">
          <mxGeometry x="366" y="340" width="50" height="50" as="geometry" />
        </mxCell>
      </root>
    </mxGraphModel>
  </diagram>
</mxfile>
